<svg width="19" height="18" viewBox="0 0 19 18" fill="none" xmlns="http://www.w3.org/2000/svg">
<g clip-path="url(#clip0_145_1789)">
<path fill-rule="evenodd" clip-rule="evenodd" d="M0.998291 8.99859C0.998291 8.70027 1.1168 8.41417 1.32774 8.20323C1.53869 7.99228 1.82479 7.87378 2.12311 7.87378H15.1553L10.3253 3.04606C10.1141 2.83484 9.99542 2.54838 9.99542 2.24968C9.99542 1.95099 10.1141 1.66452 10.3253 1.45331C10.5365 1.2421 10.823 1.12344 11.1217 1.12344C11.4204 1.12344 11.7068 1.2421 11.918 1.45331L18.6669 8.20222C18.7717 8.30671 18.8548 8.43083 18.9115 8.56749C18.9682 8.70414 18.9974 8.85064 18.9974 8.99859C18.9974 9.14655 18.9682 9.29305 18.9115 9.4297C18.8548 9.56635 18.7717 9.69048 18.6669 9.79497L11.918 16.5439C11.7068 16.7551 11.4204 16.8737 11.1217 16.8737C10.823 16.8737 10.5365 16.7551 10.3253 16.5439C10.1141 16.3327 9.99542 16.0462 9.99542 15.7475C9.99542 15.4488 10.1141 15.1623 10.3253 14.9511L15.1553 10.1234H2.12311C1.82479 10.1234 1.53869 10.0049 1.32774 9.79396C1.1168 9.58302 0.998291 9.29691 0.998291 8.99859Z" fill="#242424"/>
</g>
<defs>
<clipPath id="clip0_145_1789">
<rect width="17.9991" height="17.9971" fill="white" transform="translate(0.998291)"/>
</clipPath>
</defs>
</svg>
