<svg width="18" height="18" viewBox="0 0 18 18" fill="none" xmlns="http://www.w3.org/2000/svg">
<g clip-path="url(#clip0_158_901)">
<path fill-rule="evenodd" clip-rule="evenodd" d="M17.999 8.99851C17.999 9.29683 17.8805 9.58293 17.6696 9.79387C17.4586 10.0048 17.1725 10.1233 16.8742 10.1233L3.84206 10.1233L8.67203 14.951C8.88324 15.1623 9.0019 15.4487 9.0019 15.7474C9.0019 16.0461 8.88324 16.3326 8.67203 16.5438C8.46082 16.755 8.17435 16.8737 7.87566 16.8737C7.57696 16.8737 7.2905 16.755 7.07928 16.5438L0.330374 9.79488C0.225623 9.69039 0.142516 9.56627 0.0858104 9.42961C0.0291049 9.29296 -8.32478e-05 9.14646 -8.32349e-05 8.9985C-8.32219e-05 8.85055 0.0291049 8.70405 0.0858104 8.5674C0.142516 8.43075 0.225623 8.30662 0.330375 8.20213L7.07929 1.45322C7.2905 1.24201 7.57696 1.12336 7.87566 1.12336C8.17435 1.12336 8.46082 1.24201 8.67203 1.45322C8.88324 1.66443 9.0019 1.9509 9.0019 2.24959C9.0019 2.54829 8.88324 2.83476 8.67203 3.04597L3.84206 7.87369L16.8742 7.87369C17.1725 7.87369 17.4586 7.9922 17.6696 8.20314C17.8805 8.41408 17.999 8.70019 17.999 8.99851Z" fill="#F6A700"/>
</g>
<defs>
<clipPath id="clip0_158_901">
<rect width="17.9991" height="17.9971" fill="white" transform="translate(17.999 17.9971) rotate(-180)"/>
</clipPath>
</defs>
</svg>
