<svg width="15" height="12" viewBox="0 0 15 12" fill="none" xmlns="http://www.w3.org/2000/svg">
<path d="M12.1976 0.697521C12.4441 0.462827 12.7722 0.333079 13.1125 0.335655C13.4529 0.33823 13.779 0.472928 14.0219 0.711325C14.2648 0.949722 14.4057 1.27317 14.4147 1.61342C14.4237 1.95367 14.3001 2.28411 14.0701 2.53502L7.08763 11.2675C6.96757 11.3968 6.82266 11.5006 6.66157 11.5726C6.50047 11.6447 6.32651 11.6835 6.15008 11.6867C5.97364 11.69 5.79836 11.6577 5.63471 11.5916C5.47106 11.5256 5.32241 11.4273 5.19764 11.3025L0.567153 6.672C0.438201 6.55185 0.334773 6.40695 0.263037 6.24595C0.191301 6.08495 0.152728 5.91115 0.149618 5.73492C0.146509 5.55869 0.178927 5.38364 0.244939 5.22021C0.310951 5.05678 0.409203 4.90832 0.533836 4.78369C0.658468 4.65906 0.806927 4.56081 0.970356 4.4948C1.13378 4.42878 1.30884 4.39637 1.48506 4.39948C1.66129 4.40258 1.83509 4.44116 1.99609 4.51289C2.15709 4.58463 2.30199 4.68806 2.42215 4.81701L6.08664 8.47975L12.1644 0.736021C12.1753 0.722548 12.187 0.709694 12.1994 0.697521H12.1976Z" fill="#F6A700"/>
</svg>
