<svg width="15" height="23" viewBox="0 0 15 23" fill="none" xmlns="http://www.w3.org/2000/svg">
<g clip-path="url(#clip0_145_1911)">
<path d="M7.50002 22.9248C5.60623 22.9248 3.79001 22.1725 2.45091 20.8334C1.1118 19.4943 0.359497 17.6781 0.359497 15.7843V7.21569C0.359497 5.32191 1.1118 3.50569 2.45091 2.16658C3.79001 0.827475 5.60623 0.0751724 7.50002 0.0751724C9.3938 0.0751724 11.21 0.827475 12.5491 2.16658C13.8882 3.50569 14.6405 5.32191 14.6405 7.21569V15.7843C14.6405 16.722 14.4558 17.6506 14.097 18.5169C13.7382 19.3832 13.2122 20.1704 12.5491 20.8334C11.8861 21.4965 11.0989 22.0225 10.2326 22.3813C9.36625 22.7401 8.43772 22.9248 7.50002 22.9248ZM7.50002 1.50328C5.98499 1.50328 4.53201 2.10512 3.46073 3.1764C2.38944 4.24769 1.7876 5.70067 1.7876 7.21569V15.7843C1.7876 17.2993 2.38944 18.7523 3.46073 19.8236C4.53201 20.8949 5.98499 21.4967 7.50002 21.4967C9.01505 21.4967 10.468 20.8949 11.5393 19.8236C12.6106 18.7523 13.2124 17.2993 13.2124 15.7843V7.21569C13.2124 5.70067 12.6106 4.24769 11.5393 3.1764C10.468 2.10512 9.01505 1.50328 7.50002 1.50328Z" fill="white"/>
<path d="M7.5 9.35785C7.31062 9.35785 7.129 9.28262 6.99509 9.14871C6.86118 9.0148 6.78595 8.83318 6.78595 8.6438V5.78759C6.78595 5.59821 6.86118 5.41659 6.99509 5.28268C7.129 5.14877 7.31062 5.07354 7.5 5.07354C7.68938 5.07354 7.871 5.14877 8.00491 5.28268C8.13882 5.41659 8.21405 5.59821 8.21405 5.78759V8.6438C8.21405 8.83318 8.13882 9.0148 8.00491 9.14871C7.871 9.28262 7.68938 9.35785 7.5 9.35785Z" fill="white"/>
</g>
<defs>
<clipPath id="clip0_145_1911">
<rect width="14.8823" height="23" fill="white" transform="translate(0.0588379 7.62939e-06)"/>
</clipPath>
</defs>
</svg>
