<svg width="100" height="19" viewBox="0 0 100 19" fill="none" xmlns="http://www.w3.org/2000/svg">
<path d="M1.70316 1.78187V17.3469H3.80447V19H0V0.128754H3.80447V1.78187H1.70316Z" fill="white"/>
<path d="M64.8308 0V18.8712H61.0263V17.2181H63.1276V1.65311H61.0263V0H64.8308Z" fill="white"/>
<path d="M76.7308 3.37051C77.8367 3.37051 78.5888 4.25074 78.4118 5.32419L76.9741 13.2463C76.775 14.3197 75.7133 15.1999 74.6074 15.1999H72.2849L74.4304 3.37051H76.7308ZM76.7087 3.54226H74.541L72.4397 15.0496H74.6074C75.6248 15.0496 76.5981 14.2338 76.775 13.2677L78.2128 5.34566C78.3897 4.33662 77.704 3.54226 76.7087 3.54226ZM76.5096 4.50837C76.9741 4.50837 77.2838 4.87334 77.2174 5.34566L75.7797 13.2677C75.6912 13.7186 75.2488 14.105 74.7622 14.105H73.5899L75.3373 4.52984H76.5096V4.50837ZM77.0405 5.34566C77.1068 4.98069 76.8414 4.65865 76.4654 4.65865H75.4479L73.7669 13.9118H74.7843C75.1603 13.9118 75.5364 13.6112 75.6027 13.2248L77.0405 5.34566Z" fill="white"/>
<path d="M85.4236 5.3456L85.1581 6.76255H83.831L84.0964 5.3456C84.1628 4.98063 83.8974 4.65859 83.5213 4.65859H83.2117C82.8356 4.65859 82.4596 4.95916 82.3933 5.3456L81.9951 7.59984C81.9509 7.81453 82.0394 8.02922 82.1942 8.13657L83.831 9.44618C84.2955 9.81115 84.5167 10.4123 84.384 11.0349L83.9858 13.2891C83.7868 14.3626 82.7251 15.2428 81.6191 15.2428H81.3094C80.2035 15.2428 79.4514 14.3626 79.6284 13.2891L79.8938 11.8722H81.221L80.9555 13.2891C80.8892 13.6541 81.1546 13.9761 81.5306 13.9761H81.8403C82.2163 13.9761 82.5923 13.6756 82.6587 13.2891L83.0568 11.0349C83.1011 10.8202 83.0126 10.6055 82.8578 10.4982L81.221 9.18855C80.7565 8.82357 80.5353 8.22244 80.668 7.59984L81.0661 5.3456C81.2652 4.27215 82.3269 3.39192 83.4329 3.39192H83.7425C84.8706 3.39192 85.6226 4.27215 85.4236 5.3456ZM83.7425 3.5422H83.4329C82.4154 3.5422 81.4421 4.35803 81.2652 5.32413L80.8671 7.57837C80.7565 8.15804 80.9555 8.69476 81.3758 9.03826L83.0126 10.3479C83.2117 10.4982 83.3001 10.7558 83.2338 11.0349L82.8356 13.2891C82.7472 13.74 82.3048 14.1264 81.8182 14.1264H81.5085C81.044 14.1264 80.7343 13.7614 80.8007 13.2891L81.0219 12.0439H80.0265L79.8053 13.2891C79.6284 14.2767 80.3141 15.071 81.3094 15.071H81.6191C82.6366 15.071 83.6098 14.2552 83.7868 13.2891L84.1849 11.0349C84.2955 10.4552 84.0964 9.91849 83.6762 9.57499L82.0394 8.26538C81.8403 8.1151 81.7518 7.85747 81.8182 7.57837L82.2163 5.32413C82.3048 4.87328 82.7472 4.48684 83.2338 4.48684H83.5434C84.0079 4.48684 84.3176 4.85181 84.2513 5.32413L84.0301 6.56933H85.0254L85.2466 5.32413C85.4236 4.35803 84.76 3.5422 83.7425 3.5422Z" fill="white"/>
<path d="M92.2141 5.3456L91.9487 6.76255H90.6215L90.887 5.3456C90.9533 4.98063 90.6879 4.65859 90.3119 4.65859H90.0022C89.6262 4.65859 89.2502 4.95916 89.1838 5.3456L87.7461 13.2677C87.6797 13.6326 87.9451 13.9547 88.3212 13.9547H88.6308C89.0068 13.9547 89.3829 13.6541 89.4492 13.2677L89.8474 11.0778H88.8299L89.0511 9.78968H91.3957L90.7764 13.2677C90.5773 14.3411 89.5156 15.2213 88.4096 15.2213H88.1C86.994 15.2213 86.242 14.3411 86.4189 13.2677L87.8567 5.3456C88.0557 4.27215 89.1174 3.39192 90.2234 3.39192H90.5331C91.6611 3.39192 92.4132 4.27215 92.2141 5.3456ZM92.015 5.32413C92.192 4.33656 91.5063 3.5422 90.5109 3.5422H90.2013C89.1838 3.5422 88.2106 4.35803 88.0336 5.32413L86.5959 13.2462C86.4189 14.2338 87.1046 15.0281 88.1 15.0281H88.4096C89.4271 15.0281 90.4003 14.2123 90.5773 13.2462L91.1966 9.93997H89.2059L89.029 10.9061H90.0464L89.6041 13.2677C89.5156 13.7185 89.0732 14.105 88.5866 14.105H88.2769C87.8124 14.105 87.5027 13.74 87.5691 13.2677L89.0068 5.3456C89.0953 4.89475 89.5377 4.50831 90.0243 4.50831H90.334C90.7985 4.50831 91.1081 4.87328 91.0418 5.3456L90.8206 6.5908H91.816L92.015 5.32413Z" fill="white"/>
<path d="M100 3.39192L97.8545 15.2213H96.5494L95.5983 7.79307L94.2491 15.2213H92.9219L95.0675 3.39192H96.3725L97.3015 10.8202L98.6507 3.39192H100ZM99.8009 3.5422H98.8056L97.2794 11.9366L96.2177 3.5422H95.2002L93.121 15.0496H94.1163L95.6426 6.65521L96.7043 15.0496H97.7217L99.8009 3.5422Z" fill="white"/>
<path d="M13.2493 2.70515C13.5589 2.70515 13.8244 2.76956 14.0898 2.8769C14.3552 2.98425 14.5985 3.13453 14.7976 3.32775C14.9967 3.52097 15.1515 3.73566 15.2621 3.99329C15.3727 4.25092 15.4391 4.53002 15.4391 4.83058V13.869C15.4391 14.1696 15.3727 14.4272 15.2621 14.6848C15.1515 14.9425 14.9967 15.1786 14.7976 15.3504C14.5985 15.5436 14.3774 15.6939 14.0898 15.8012C13.8244 15.9086 13.5368 15.973 13.2493 15.973H10.7056V2.66221L13.2493 2.70515ZM14.134 4.83058C14.134 4.59442 14.0456 4.37973 13.8686 4.22945C13.6917 4.0577 13.4926 3.97182 13.2493 3.97182H12.0106V14.7278H13.2493C13.4926 14.7278 13.7138 14.6419 13.8686 14.4702C14.0456 14.2984 14.134 14.1052 14.134 13.869V4.83058Z" fill="white"/>
<path d="M17.098 16.016L18.2703 14.2126L19.4426 16.016H17.098Z" fill="white"/>
<path d="M22.9816 2.66221H25.835V13.8476C25.835 14.1481 25.7686 14.4058 25.658 14.6848C25.5474 14.9425 25.3926 15.1786 25.1935 15.3504C24.9945 15.5436 24.7733 15.6939 24.4857 15.8012C24.1982 15.9086 23.9328 15.973 23.6452 15.973H23.2913C22.9816 15.973 22.7162 15.9086 22.4287 15.8012C22.1632 15.6939 21.9199 15.5436 21.743 15.3504C21.5439 15.1572 21.3891 14.9425 21.2785 14.6848C21.1679 14.4272 21.1015 14.1481 21.1015 13.8476V12.3233H22.4065V13.8476C22.4065 14.0837 22.495 14.2984 22.6499 14.4487C22.8268 14.6204 23.0259 14.6848 23.2692 14.6848H23.6231C23.8664 14.6848 24.0876 14.599 24.2424 14.4272C24.4194 14.2555 24.5079 14.0622 24.5079 13.8261V3.92888H22.9816V2.66221Z" fill="white"/>
<path d="M31.2099 2.68362L33.5988 15.9944H32.2937L31.8292 13.3537H29.1971L28.7326 15.9944H27.4276L29.8164 2.68362H31.2099ZM31.5638 12.0656L30.48 6.11866L29.4183 12.0656H31.5638Z" fill="white"/>
<path d="M38.6861 2.85538C38.9515 2.96272 39.1949 3.113 39.3939 3.30623C39.593 3.49945 39.7478 3.71414 39.8584 3.97176C39.969 4.22939 40.0354 4.50849 40.0354 4.80905V6.33335H38.7082V4.80905C38.7082 4.5729 38.6198 4.35821 38.4428 4.20792C38.2659 4.03617 38.0668 3.97176 37.8235 3.97176H37.4696C37.2263 3.97176 37.0051 4.05764 36.8502 4.20792C36.6733 4.37967 36.6069 4.5729 36.6069 4.80905V7.36386C36.6069 7.66443 36.7397 7.90059 36.983 8.07234L39.1285 9.5537C39.4382 9.76839 39.6594 10.0045 39.8142 10.3051C39.969 10.6057 40.0575 10.9277 40.0575 11.2712V13.8475C40.0575 14.1481 39.9911 14.4057 39.8806 14.6848C39.77 14.9424 39.6151 15.1786 39.416 15.3503C39.217 15.5435 38.9958 15.6938 38.7304 15.8012C38.4649 15.9085 38.1774 15.9729 37.8677 15.9729H37.5138C37.2042 15.9729 36.9387 15.9085 36.6512 15.8012C36.3857 15.6938 36.1424 15.5435 35.9655 15.3503C35.7664 15.1571 35.6116 14.9424 35.501 14.6848C35.3904 14.4272 35.324 14.1481 35.324 13.8475V12.3232H36.6291V13.8475C36.6291 14.0837 36.7175 14.2983 36.8945 14.4486C37.0714 14.6204 37.2705 14.6848 37.5138 14.6848H37.8677C38.111 14.6848 38.3322 14.5989 38.4871 14.4486C38.664 14.2769 38.7525 14.0837 38.7525 13.8475V11.2927C38.7525 10.9921 38.6198 10.756 38.3765 10.5842L36.2309 9.10285C35.9212 8.90963 35.7001 8.652 35.5452 8.35144C35.3904 8.05087 35.3019 7.72884 35.3019 7.38533V4.80905C35.3019 4.50849 35.3683 4.25086 35.4789 3.97176C35.5895 3.71414 35.7443 3.47798 35.9434 3.30623C36.1424 3.113 36.3636 2.96272 36.6291 2.85538C36.8945 2.74803 37.182 2.68362 37.4917 2.68362H37.8456C38.1332 2.68362 38.4207 2.72656 38.6861 2.85538Z" fill="white"/>
<path d="M52.8202 2.68362H54.1252V15.9944H52.8202L50.0332 6.95595V15.9944H48.7281V2.68362H50.0332L52.8202 11.7221V2.68362Z" fill="white"/>
<path d="M46.5605 3.97176C46.4499 3.71414 46.2951 3.47798 46.096 3.30623C45.8969 3.113 45.6757 2.96272 45.3882 2.85538C45.1228 2.74803 44.8352 2.68362 44.5477 2.68362H44.1938C43.8841 2.68362 43.6187 2.74803 43.3311 2.85538C43.0436 2.96272 42.8224 3.113 42.6454 3.30623C42.4464 3.49945 42.2915 3.71414 42.1809 3.97176C42.0703 4.22939 42.004 4.50849 42.004 4.80905V13.8475C42.004 14.1481 42.0703 14.4057 42.1809 14.6848C42.2915 14.9424 42.4464 15.1786 42.6454 15.3503C42.8445 15.5435 43.0657 15.6938 43.3311 15.8012C43.5965 15.9085 43.8841 15.9729 44.1938 15.9729H44.5477C44.8573 15.9729 45.1228 15.9085 45.3882 15.8012C45.6536 15.6938 45.8969 15.5435 46.096 15.3503C46.2951 15.1571 46.4499 14.9424 46.5605 14.6848C46.6711 14.4272 46.7374 14.1481 46.7374 13.8475V4.80905C46.7374 4.50849 46.6932 4.25086 46.5605 3.97176ZM44.1938 3.95029H44.5477C44.791 3.95029 45.0122 4.03617 45.167 4.18645C45.3439 4.35821 45.4324 4.55143 45.4324 4.78759V10.6057L43.486 4.2938C43.5081 4.25086 43.5302 4.20792 43.5744 4.18645C43.7293 4.03617 43.9505 3.95029 44.1938 3.95029ZM44.5477 14.7063H44.1938C43.9505 14.7063 43.7293 14.6204 43.5744 14.4701C43.3975 14.2983 43.3311 14.1051 43.3311 13.869V8.0294L45.2776 14.3413C45.2555 14.3842 45.2334 14.4272 45.1891 14.4486C45.0122 14.6204 44.791 14.7063 44.5477 14.7063Z" fill="white"/>
</svg>
