<svg width="20" height="21" viewBox="0 0 20 21" fill="none" xmlns="http://www.w3.org/2000/svg">
<g clip-path="url(#clip0_145_761)">
<path fill-rule="evenodd" clip-rule="evenodd" d="M14.3248 13.399L19.7048 18.779C19.8939 18.9682 20 19.2248 20 19.4923C19.9999 19.7599 19.8935 20.0164 19.7043 20.2055C19.515 20.3946 19.2584 20.5008 18.9909 20.5007C18.7234 20.5006 18.4669 20.3942 18.2778 20.205L12.8978 14.825C11.2895 16.0707 9.26705 16.6569 7.24189 16.4643C5.21674 16.2718 3.341 15.315 1.99625 13.7886C0.6515 12.2622 -0.0612416 10.2808 0.00301976 8.24753C0.0672812 6.21427 0.903718 4.28185 2.34217 2.84339C3.78063 1.40494 5.71305 0.568502 7.74631 0.50424C9.77958 0.439979 11.761 1.15272 13.2874 2.49747C14.8138 3.84222 15.7706 5.71796 15.9631 7.74312C16.1556 9.76827 15.5694 11.7907 14.3238 13.399H14.3248ZM7.99977 14.5C9.59107 14.5 11.1172 13.8678 12.2424 12.7426C13.3676 11.6174 13.9998 10.0913 13.9998 8.49999C13.9998 6.90869 13.3676 5.38257 12.2424 4.25735C11.1172 3.13213 9.59107 2.49999 7.99977 2.49999C6.40847 2.49999 4.88235 3.13213 3.75713 4.25735C2.63191 5.38257 1.99977 6.90869 1.99977 8.49999C1.99977 10.0913 2.63191 11.6174 3.75713 12.7426C4.88235 13.8678 6.40847 14.5 7.99977 14.5Z" fill="#242424"/>
</g>
<defs>
<clipPath id="clip0_145_761">
<rect width="20.0009" height="21" fill="white" transform="translate(-0.000976562)"/>
</clipPath>
</defs>
</svg>
