<svg width="38" height="38" viewBox="0 0 38 38" fill="none" xmlns="http://www.w3.org/2000/svg">
<rect width="38" height="38" rx="2" fill="#F6A700"/>
<path d="M27.5087 28.0714C27.5087 27.6921 27.5087 27.3352 27.5087 26.9612C27.8179 26.9414 28.1413 26.9207 28.4647 26.8995C28.4691 26.8832 28.473 26.8673 28.4774 26.851C26.539 25.7316 24.6001 24.6126 22.6471 23.4848C22.8361 23.157 23.0145 22.8473 23.2075 22.5129C24.2327 23.1032 25.2446 23.6861 26.2857 24.2857C26.2857 21.8908 26.2857 19.5339 26.2857 17.1443C26.1976 17.1914 26.1284 17.2258 26.0614 17.2645C23.9397 18.4893 21.8189 19.7158 19.695 20.9375C19.5716 21.0084 19.5209 21.0855 19.5209 21.2304C19.5249 23.7046 19.5231 26.1792 19.524 28.6534C19.524 28.7093 19.535 28.7653 19.5447 28.8547C21.4202 27.7723 23.2718 26.7035 25.1438 25.6228C25.331 25.9457 25.5134 26.2598 25.7072 26.5946C25.3151 26.8211 24.9358 27.0396 24.5569 27.2586C22.9053 28.2124 21.2514 29.1618 19.6042 30.1231C19.1658 30.379 18.7619 30.3768 18.3222 30.1209C15.9634 28.749 13.5977 27.3894 11.2363 26.0215C11.1147 25.951 11.0244 25.9422 10.8988 26.018C10.4292 26.3012 9.95161 26.5717 9.48286 26.8942C9.80403 26.9167 10.1252 26.9387 10.423 26.9594C10.423 27.3335 10.423 27.6899 10.423 28.0265C10.0243 28.0265 9.65997 28.0361 9.29695 28.0243C8.69559 28.0049 8.09467 27.9652 7.49287 27.9494C7.3281 27.945 7.26202 27.8749 7.17919 27.7419C6.91882 27.3242 6.95054 26.959 7.20827 26.5347C7.58054 25.9219 7.88056 25.2655 8.2123 24.628C8.24226 24.5707 8.27618 24.5157 8.31759 24.4425C8.6436 24.6117 8.96036 24.776 9.30532 24.9545C9.14892 25.2598 8.99737 25.5554 8.84582 25.8514C8.85683 25.8646 8.86785 25.8774 8.87842 25.8906C10.8213 24.769 12.7637 23.6469 14.722 22.516C14.9118 22.8442 15.0911 23.1535 15.2841 23.4865C14.2589 24.0804 13.2421 24.6694 12.1905 25.2783C14.2735 26.481 16.3159 27.6599 18.3927 28.8587C18.3984 28.7459 18.405 28.6701 18.405 28.5943C18.4054 26.1567 18.4037 23.7191 18.409 21.2815C18.4094 21.108 18.3627 21.0075 18.205 20.9172C16.0731 19.6947 13.9461 18.4642 11.8178 17.2364C11.768 17.2077 11.7156 17.1844 11.6319 17.1421C11.6319 19.2968 11.6319 21.4265 11.6319 23.5738C11.2495 23.5738 10.894 23.5738 10.5116 23.5738C10.5067 23.5041 10.4966 23.427 10.4966 23.3504C10.4957 21.0745 10.497 18.7981 10.4944 16.5222C10.4939 16.0442 10.6953 15.7054 11.1138 15.4653C13.4805 14.1071 15.841 12.7383 18.2068 11.3783C18.3508 11.2955 18.4143 11.2082 18.4103 11.0351C18.398 10.4936 18.4059 9.95175 18.3587 9.38828C18.1781 9.66187 17.9971 9.93545 17.8076 10.2223C17.4895 10.0196 17.1882 9.82708 16.8679 9.6231C16.9415 9.50635 17.0098 9.39754 17.0789 9.2896C17.5292 8.58471 17.9812 7.88114 18.4275 7.17361C18.4927 7.07052 18.5685 7.04056 18.6883 7.02073C19.2081 6.9335 19.5302 7.12074 19.7844 7.59698C20.1219 8.22918 20.5474 8.81468 20.9342 9.42044C20.973 9.48124 21.0078 9.54424 21.0554 9.62442C20.7466 9.82267 20.4461 10.0156 20.1174 10.2267C19.9333 9.94118 19.7544 9.66495 19.576 9.38872C19.5588 9.39401 19.5416 9.3993 19.5245 9.40502C19.5245 11.6395 19.5245 13.8736 19.5245 16.1235C19.1416 16.1235 18.787 16.1235 18.4046 16.1235C18.4046 14.945 18.4046 13.7758 18.4046 12.5585C16.3172 13.7634 14.2713 14.9446 12.1896 16.1464C12.4165 16.2795 12.6029 16.3905 12.791 16.4993C14.792 17.6544 16.7939 18.8087 18.7936 19.966C18.9037 20.0299 18.9887 20.0546 19.1125 19.9823C21.2572 18.7382 23.4049 17.4994 25.5513 16.2592C25.6006 16.2306 25.6478 16.198 25.7328 16.1438C23.9217 15.0975 22.1361 14.0657 20.3254 13.0198C20.5139 12.6925 20.6955 12.3779 20.8858 12.0475C21.1202 12.1823 21.3413 12.3087 21.5616 12.4361C23.315 13.448 25.0667 14.463 26.8227 15.4706C27.2395 15.7098 27.4333 16.0521 27.4324 16.5323C27.4276 19.2563 27.4316 21.9803 27.4263 24.7042C27.4258 24.8778 27.4708 24.9809 27.6307 25.0677C28.1052 25.3254 28.5691 25.6034 29.074 25.8439C28.9268 25.5558 28.7792 25.2677 28.6219 24.9597C28.9546 24.7866 29.2771 24.6188 29.6158 24.4425C29.778 24.7544 29.933 25.0527 30.0877 25.3505C30.3749 25.9034 30.6595 26.4581 30.9516 27.0083C31.0186 27.1343 31.0093 27.2335 30.9644 27.3713C30.8128 27.8348 30.5296 27.9828 30.037 27.9714C29.2537 27.9533 28.4686 28.0326 27.684 28.0701C27.6413 28.0732 27.5981 28.0714 27.5087 28.0714Z" fill="white"/>
</svg>
