<svg width="18" height="18" viewBox="0 0 18 18" fill="none" xmlns="http://www.w3.org/2000/svg">
<path d="M6.59375 4.875C6.59375 5.07896 6.53327 5.27834 6.41995 5.44793C6.30664 5.61752 6.14558 5.7497 5.95714 5.82775C5.76871 5.9058 5.56136 5.92623 5.36131 5.88644C5.16127 5.84664 4.97752 5.74843 4.8333 5.6042C4.68907 5.45998 4.59086 5.27623 4.55106 5.07619C4.51127 4.87614 4.5317 4.66879 4.60975 4.48036C4.6878 4.29192 4.81998 4.13086 4.98957 4.01755C5.15916 3.90423 5.35854 3.84375 5.5625 3.84375C5.836 3.84375 6.09831 3.9524 6.2917 4.1458C6.4851 4.33919 6.59375 4.6015 6.59375 4.875ZM17.5938 1.78125V16.2188C17.5938 16.5834 17.4489 16.9332 17.191 17.191C16.9332 17.4489 16.5834 17.5938 16.2188 17.5938H1.78125C1.41658 17.5938 1.06684 17.4489 0.808978 17.191C0.551116 16.9332 0.40625 16.5834 0.40625 16.2188V1.78125C0.40625 1.41658 0.551116 1.06684 0.808978 0.808978C1.06684 0.551116 1.41658 0.40625 1.78125 0.40625H16.2188C16.5834 0.40625 16.9332 0.551116 17.191 0.808978C17.4489 1.06684 17.5938 1.41658 17.5938 1.78125ZM16.2188 16.2188V1.78125H1.78125V16.2188H16.2188ZM5.5625 6.9375C5.38016 6.9375 5.2053 7.00993 5.07636 7.13886C4.94743 7.2678 4.875 7.44266 4.875 7.625V13.125C4.875 13.3073 4.94743 13.4822 5.07636 13.6111C5.2053 13.7401 5.38016 13.8125 5.5625 13.8125C5.74484 13.8125 5.9197 13.7401 6.04864 13.6111C6.17757 13.4822 6.25 13.3073 6.25 13.125V7.625C6.25 7.44266 6.17757 7.2678 6.04864 7.13886C5.9197 7.00993 5.74484 6.9375 5.5625 6.9375ZM10.7188 6.9375C10.0998 6.93747 9.49514 7.12307 8.98281 7.47031C8.94522 7.30535 8.84812 7.16004 8.71008 7.06219C8.57205 6.96434 8.40279 6.92083 8.23468 6.93998C8.06657 6.95914 7.91143 7.03961 7.79894 7.16599C7.68646 7.29238 7.62452 7.45581 7.625 7.625V13.125C7.625 13.3073 7.69743 13.4822 7.82636 13.6111C7.9553 13.7401 8.13016 13.8125 8.3125 13.8125C8.49484 13.8125 8.6697 13.7401 8.79864 13.6111C8.92757 13.4822 9 13.3073 9 13.125V10.0312C9 9.57541 9.18108 9.13824 9.50341 8.81591C9.82574 8.49358 10.2629 8.3125 10.7188 8.3125C11.1746 8.3125 11.6118 8.49358 11.9341 8.81591C12.2564 9.13824 12.4375 9.57541 12.4375 10.0312V13.125C12.4375 13.3073 12.5099 13.4822 12.6389 13.6111C12.7678 13.7401 12.9427 13.8125 13.125 13.8125C13.3073 13.8125 13.4822 13.7401 13.6111 13.6111C13.7401 13.4822 13.8125 13.3073 13.8125 13.125V10.0312C13.8125 9.21074 13.4866 8.42383 12.9064 7.84364C12.3262 7.26345 11.5393 6.9375 10.7188 6.9375Z" fill="#434343"/>
</svg>
