<svg width="204" height="52" viewBox="0 0 204 52" fill="none" xmlns="http://www.w3.org/2000/svg">
<path d="M72.7561 40.9766V39.9111C72.7561 39.3952 73.0098 39.1331 73.5087 39.1331H85.5009C86.0083 39.1331 86.2535 39.3952 86.2535 39.9111V40.9766C86.2535 41.4925 85.9998 41.7546 85.5009 41.7546H73.5087C73.0013 41.7546 72.7561 41.4925 72.7561 40.9766Z" fill="#2D2B37"/>
<path d="M77.9227 3.23605H1.75107C0.783982 3.23605 0 4.02003 0 4.98712V45.2618C0 46.2289 0.783987 47.0129 1.75108 47.0129H77.9227C78.8898 47.0129 79.6738 46.2289 79.6738 45.2618V4.98713C79.6738 4.02004 78.8898 3.23605 77.9227 3.23605Z" fill="#F6A700"/>
<path d="M38.3334 38.8697C37.8852 38.8697 37.623 38.6413 37.5554 38.1931L36.7773 33.0853C36.7097 32.6371 36.4475 32.4088 35.9993 32.4088H32.4475C31.9993 32.4088 31.7372 32.6371 31.6695 33.0853L30.9591 38.1931C30.8915 38.6413 30.6293 38.8697 30.1811 38.8697H29.2255C28.7012 38.8697 28.4475 38.6244 28.4475 38.1255C28.4475 38.1001 28.456 38.0494 28.4644 37.9817C28.4729 37.9056 28.5067 37.6857 28.5574 37.3052L32.456 11.7575C32.5236 11.3093 32.7858 11.081 33.234 11.081H35.289C35.7372 11.081 35.9993 11.3093 36.067 11.7575L39.9317 37.3052C39.974 37.6857 40.0078 37.9056 40.0163 37.9817C40.0247 38.0494 40.0332 38.1001 40.0332 38.1255C40.0332 38.6244 39.771 38.8697 39.2552 38.8697H38.3334ZM35.0014 21.3051C34.7393 19.7491 34.4771 18.9626 34.2234 18.9626C33.9359 18.9626 33.6822 19.7491 33.4454 21.3051L32.456 28.1551C32.3883 28.5779 32.346 28.8992 32.346 29.1107C32.346 29.5589 32.5913 29.7872 33.0902 29.7872H35.3651C35.8809 29.7872 36.1431 29.5589 36.1431 29.1107C36.1431 28.8992 36.1093 28.5779 36.0332 28.1551L35.0014 21.3051Z" fill="white"/>
<path d="M53.6232 38.8697C53.175 38.8697 52.9128 38.6413 52.8452 38.1931L52.0671 33.0853C51.9995 32.6371 51.7373 32.4088 51.2891 32.4088H47.7373C47.2891 32.4088 47.027 32.6371 46.9593 33.0853L46.2489 38.1931C46.1813 38.6413 45.9191 38.8697 45.4709 38.8697H44.5153C43.991 38.8697 43.7373 38.6244 43.7373 38.1255C43.7373 38.1001 43.7458 38.0494 43.7542 37.9817C43.7627 37.9056 43.7965 37.6857 43.8472 37.3052L47.7458 11.7575C47.8134 11.3093 48.0756 11.081 48.5238 11.081H50.5788C51.027 11.081 51.2891 11.3093 51.3568 11.7575L55.2215 37.3052C55.2638 37.6857 55.2976 37.9056 55.3061 37.9817C55.3145 38.0494 55.323 38.1001 55.323 38.1255C55.323 38.6244 55.0608 38.8697 54.545 38.8697H53.6232ZM50.2912 21.3051C50.0291 19.7491 49.7669 18.9626 49.5132 18.9626C49.2257 18.9626 48.972 19.7491 48.7352 21.3051L47.7458 28.1551C47.6781 28.5779 47.6358 28.8992 47.6358 29.1107C47.6358 29.5589 47.8811 29.7872 48.38 29.7872H50.6549C51.1707 29.7872 51.4329 29.5589 51.4329 29.1107C51.4329 28.8992 51.3991 28.5779 51.323 28.1551L50.2912 21.3051Z" fill="white"/>
<path d="M59.8304 38.8697C59.3145 38.8697 59.0524 38.6075 59.0524 38.0832V36.8824C59.0524 36.6456 59.12 36.4933 59.2469 36.4172C59.3737 36.3411 59.5259 36.2904 59.6866 36.2396C59.8473 36.1974 59.9995 36.1382 60.1264 36.0621C60.2532 35.9859 60.3209 35.8337 60.3209 35.5969V14.3537C60.3209 14.1169 60.2532 13.9647 60.1264 13.8886C59.9995 13.8125 59.8473 13.7618 59.6866 13.711C59.5259 13.6687 59.3822 13.6095 59.2469 13.5334C59.1116 13.4658 59.0524 13.3051 59.0524 13.0683V11.8675C59.0524 11.3432 59.3145 11.081 59.8304 11.081H65.3272C65.9615 11.081 66.5957 11.2078 67.2215 11.4531C67.8473 11.6983 68.4139 12.0704 68.9044 12.5694C69.3949 13.0683 69.8008 13.6857 70.1137 14.4298C70.4182 15.174 70.5788 16.0451 70.5788 17.043V32.8993C70.5788 33.8887 70.4266 34.7597 70.1137 35.5124C69.8093 36.2566 69.4034 36.8739 68.9044 37.3728C68.4055 37.8718 67.8473 38.2439 67.2215 38.4891C66.5957 38.7344 65.9615 38.8612 65.3272 38.8612H59.8304V38.8697ZM63.7374 13.7195C63.2131 13.7195 62.9594 13.9816 62.9594 14.4975V35.4616C62.9594 35.9775 63.2215 36.2396 63.7374 36.2396H65.3357C66.0714 36.2396 66.6803 35.9775 67.1792 35.4616C67.6782 34.9458 67.9234 34.1762 67.9234 33.153V16.8062C67.9234 15.7829 67.6782 15.0218 67.1792 14.4975C66.6803 13.9816 66.0714 13.7195 65.3357 13.7195H63.7374Z" fill="white"/>
<path d="M88.2194 11.0894H89.2089C89.6825 11.0894 89.9446 11.3347 89.9869 11.8336L90.841 26.0578C90.9087 27.4024 91.0778 28.0789 91.34 28.0789C91.5768 28.0789 91.8558 27.4447 92.1941 26.1677L93.1159 22.2607C93.1835 21.9816 93.378 21.8379 93.6825 21.8379C93.97 21.8379 94.1476 21.9816 94.2152 22.2607L95.137 26.1677C95.4161 27.4447 95.6782 28.0789 95.915 28.0789C96.1772 28.0789 96.3379 27.4024 96.414 26.0578L97.3019 11.8336C97.3442 11.3347 97.6064 11.0894 98.0799 11.0894H99.1117C99.6275 11.0894 99.8897 11.36 99.8897 11.9097L98.3675 38.1255C98.3167 38.6244 98.063 38.8696 97.5895 38.8696H96.3463C95.8981 38.8696 95.636 38.6582 95.5683 38.2354L94.4351 32.6624C94.173 31.5546 93.9193 30.9965 93.6571 30.9965C93.378 30.9965 93.1243 31.5546 92.9129 32.6624L91.7797 38.2354C91.7121 38.6582 91.4499 38.8696 91.0017 38.8696H89.7247C89.2512 38.8696 88.989 38.6244 88.9467 38.1255L87.4583 11.9097C87.433 11.36 87.6951 11.0894 88.2194 11.0894Z" fill="#2D2B37"/>
<path d="M103.687 15.6307C103.687 12.6032 105.074 11.0894 107.839 11.0894H110.072C112.812 11.0894 114.19 12.6032 114.19 15.6307V34.3622C114.19 37.3643 112.82 38.8696 110.072 38.8696H107.839C105.074 38.8696 103.687 37.3643 103.687 34.3622V15.6307ZM106.342 34.5736C106.342 35.6815 106.841 36.2396 107.831 36.2396H110.063C111.053 36.2396 111.551 35.6815 111.551 34.5736V15.3854C111.551 14.2776 111.053 13.7194 110.063 13.7194H107.831C106.833 13.7194 106.342 14.2776 106.342 15.3854V34.5736Z" fill="#2D2B37"/>
<path d="M121.497 38.0916C121.497 38.6159 121.234 38.8781 120.719 38.8781H119.619C119.095 38.8781 118.841 38.6159 118.841 38.0916V11.8759C118.841 11.3516 119.103 11.0894 119.619 11.0894H124.228C124.888 11.0894 125.539 11.2163 126.165 11.4615C126.79 11.7068 127.349 12.0788 127.848 12.5778C128.347 13.0767 128.736 13.6941 129.031 14.4383C129.327 15.1825 129.48 16.0535 129.48 17.0514V20.062C129.48 21.2882 129.26 22.3284 128.82 23.1656C128.38 24.0028 127.822 24.6624 127.137 25.136C126.9 25.2797 126.782 25.525 126.782 25.8802C126.782 25.9732 126.79 26.0747 126.799 26.1677C126.807 26.2607 126.833 26.3707 126.85 26.489L129.26 36.8485C129.429 37.5166 129.505 37.9394 129.505 38.1255C129.505 38.6244 129.243 38.8696 128.727 38.8696H127.594C127.146 38.8696 126.883 38.6667 126.816 38.2692L124.262 26.6328C124.194 26.2353 123.932 26.0324 123.484 26.0324H122.275C121.75 26.0324 121.497 26.2945 121.497 26.8189V38.0916ZM122.275 13.7194C121.75 13.7194 121.497 13.9816 121.497 14.4975V22.6243C121.497 23.1402 121.759 23.4024 122.275 23.4024H124.228C124.964 23.4024 125.581 23.1402 126.089 22.6243C126.596 22.1085 126.85 21.3305 126.85 20.3157V16.8061C126.85 15.7829 126.596 15.0218 126.089 14.4975C125.581 13.9816 124.955 13.7194 124.228 13.7194H122.275Z" fill="#2D2B37"/>
<path d="M136.93 11.8674V17.3643C136.93 18.3537 137.082 18.8526 137.395 18.8526C137.674 18.8526 138.013 18.489 138.385 17.7533L141.793 11.5122C141.962 11.2247 142.182 11.0809 142.469 11.0809H143.535C144.101 11.0809 144.389 11.2839 144.389 11.6814C144.389 11.8251 144.33 12.0112 144.211 12.248L138.816 22.0408C138.672 22.3283 138.604 22.5905 138.604 22.8273C138.604 23.0387 138.638 23.2501 138.714 23.4615L144.423 37.7956C144.473 37.8717 144.49 37.9394 144.49 38.024C144.49 38.1085 144.49 38.1677 144.49 38.2185C144.49 38.6413 144.228 38.8527 143.712 38.8527H142.461C142.106 38.8527 141.869 38.692 141.75 38.3538L138.418 29.8717C137.996 28.7639 137.64 28.2057 137.353 28.2057C137.074 28.2057 136.93 28.8569 136.93 30.1592V38.0662C136.93 38.5905 136.668 38.8527 136.152 38.8527H135.053C134.528 38.8527 134.275 38.5905 134.275 38.0662V11.8505C134.275 11.3262 134.537 11.064 135.053 11.064H136.152C136.668 11.0894 136.93 11.3516 136.93 11.8674Z" fill="#2D2B37"/>
<path d="M156.748 15.3854C156.748 15.9013 156.486 16.1634 155.97 16.1634H155.048C154.532 16.1634 154.27 15.9013 154.27 15.3854C154.27 14.7681 154.076 14.2945 153.704 13.9647C153.323 13.6349 152.9 13.4657 152.427 13.4657C152.021 13.4657 151.64 13.6264 151.277 13.9393C150.913 14.2607 150.727 14.7765 150.727 15.4869C150.727 15.8167 150.761 16.1803 150.837 16.5693C150.913 16.9583 151.04 17.322 151.226 17.6518L156.511 28.3664C156.959 29.2628 157.281 30.0662 157.467 30.7766C157.653 31.4869 157.754 32.2227 157.754 32.9753C157.754 33.9647 157.611 34.8527 157.332 35.6138C157.052 36.3834 156.663 37.0261 156.181 37.5504C155.699 38.0747 155.116 38.4637 154.439 38.7259C153.763 38.988 153.036 39.1149 152.257 39.1149C151.454 39.1149 150.701 38.988 150.008 38.7259C149.315 38.4637 148.706 38.0831 148.181 37.5842C147.657 37.0853 147.251 36.4848 146.955 35.7576C146.659 35.0387 146.507 34.2269 146.507 33.3305C146.507 32.7385 146.769 32.4425 147.285 32.4425H148.173C148.689 32.4425 148.951 32.7385 148.951 33.3305C148.951 34.3199 149.272 35.0979 149.907 35.6561C150.541 36.2142 151.31 36.4848 152.215 36.4848C152.545 36.4848 152.883 36.4341 153.23 36.3242C153.568 36.2142 153.89 36.0366 154.169 35.7745C154.448 35.5123 154.685 35.1571 154.862 34.692C155.04 34.2269 155.124 33.6434 155.124 32.933C155.124 32.4595 155.065 31.9774 154.947 31.4954C154.828 31.0134 154.6 30.4214 154.27 29.7364L148.875 18.7765C148.57 18.1592 148.367 17.5926 148.274 17.0767C148.181 16.5609 148.131 16.0958 148.131 15.6898C148.131 14.8357 148.257 14.1084 148.503 13.508C148.748 12.9076 149.078 12.4002 149.492 12.0027C149.907 11.6053 150.363 11.3008 150.879 11.1148C151.386 10.9203 151.902 10.8272 152.418 10.8272C153.036 10.8272 153.602 10.9456 154.118 11.1824C154.634 11.4192 155.09 11.7406 155.479 12.138C155.869 12.5355 156.181 13.0175 156.401 13.5757C156.638 14.1507 156.748 14.7427 156.748 15.3854Z" fill="#2D2B37"/>
<path d="M164.807 11.8675V22.7597C164.807 23.2755 165.069 23.5377 165.585 23.5377H169.239C169.763 23.5377 170.017 23.2755 170.017 22.7597V11.8675C170.017 11.3432 170.279 11.081 170.795 11.081H171.86C172.376 11.081 172.638 11.3432 172.638 11.8675V38.0832C172.638 38.6075 172.376 38.8697 171.86 38.8697H170.795C170.27 38.8697 170.017 38.6075 170.017 38.0832V26.9457C170.017 26.4299 169.754 26.1677 169.239 26.1677H165.585C165.061 26.1677 164.807 26.4299 164.807 26.9457V38.0832C164.807 38.6075 164.545 38.8697 164.029 38.8697H162.93C162.406 38.8697 162.152 38.6075 162.152 38.0832V11.8675C162.152 11.3432 162.414 11.081 162.93 11.081H164.029C164.545 11.0895 164.807 11.3516 164.807 11.8675Z" fill="#2D2B37"/>
<path d="M177.433 15.6307C177.433 12.6032 178.82 11.0894 181.585 11.0894H183.818C186.558 11.0894 187.936 12.6032 187.936 15.6307V34.3622C187.936 37.3643 186.566 38.8696 183.818 38.8696H181.585C178.82 38.8696 177.433 37.3643 177.433 34.3622V15.6307ZM180.097 34.5736C180.097 35.6815 180.596 36.2396 181.585 36.2396H183.818C184.807 36.2396 185.306 35.6815 185.306 34.5736V15.3854C185.306 14.2776 184.807 13.7194 183.818 13.7194H181.585C180.587 13.7194 180.097 14.2776 180.097 15.3854V34.5736Z" fill="#2D2B37"/>
<path d="M195.387 38.0916C195.387 38.6159 195.124 38.8781 194.609 38.8781H193.509C192.985 38.8781 192.731 38.6159 192.731 38.0916V11.8759C192.731 11.3516 192.993 11.0894 193.509 11.0894H197.839C198.482 11.0894 199.116 11.2163 199.759 11.4615C200.401 11.7068 200.968 12.0788 201.459 12.5778C201.949 13.0767 202.355 13.6941 202.668 14.4383C202.972 15.1825 203.133 16.0535 203.133 17.0514V20.2057C203.133 21.1952 202.981 22.0662 202.668 22.8104C202.363 23.5546 201.957 24.1804 201.459 24.6793C200.96 25.1783 200.393 25.5504 199.759 25.7956C199.124 26.0408 198.482 26.1677 197.839 26.1677H196.173C195.649 26.1677 195.395 26.4299 195.395 26.9457V38.0916H195.387ZM196.165 13.7194C195.64 13.7194 195.387 13.9816 195.387 14.4975V22.7596C195.387 23.2755 195.649 23.5377 196.165 23.5377H197.831C198.566 23.5377 199.175 23.2755 199.674 22.7596C200.173 22.2438 200.418 21.4742 200.418 20.451V16.7977C200.418 15.7744 200.173 15.0133 199.674 14.489C199.175 13.9647 198.566 13.711 197.831 13.711H196.165V13.7194Z" fill="#2D2B37"/>
<path d="M72.7561 40.9766V39.9111C72.7561 39.3952 73.0098 39.1331 73.5087 39.1331L79.6738 39.1331V41.7546H73.5087C73.0013 41.7546 72.7561 41.4925 72.7561 40.9766Z" fill="#2D2B37"/>
</svg>
