<svg width="638" height="427" viewBox="0 0 638 427" fill="none" xmlns="http://www.w3.org/2000/svg">
<g opacity="0.6" clip-path="url(#clip0_145_1900)">
<mask id="path-1-inside-1_145_1900" fill="white">
<path d="M137.523 386.088C131.308 386.088 127.673 382.922 126.735 376.707L115.948 305.883C115.009 299.668 111.374 296.502 105.16 296.502H55.9111C49.6964 296.502 46.0614 299.668 45.1233 305.883L35.2736 376.707C34.3355 382.922 30.7005 386.088 24.4858 386.088H11.2356C3.96554 386.088 0.447784 382.688 0.447784 375.769C0.447784 375.417 0.565048 374.714 0.682307 373.776C0.799566 372.721 1.26859 369.672 1.97214 364.395L56.0284 10.1568C56.9664 3.94212 60.6015 0.776138 66.8162 0.776138H95.31C101.525 0.776138 105.16 3.94212 106.098 10.1568L159.685 364.395C160.271 369.672 160.74 372.721 160.858 373.776C160.975 374.714 161.092 375.417 161.092 375.769C161.092 382.688 157.457 386.088 150.304 386.088H137.523ZM91.3232 142.542C87.6882 120.966 84.0532 110.061 80.5354 110.061C76.5486 110.061 73.0309 120.966 69.7476 142.542L56.0284 237.521C55.0903 243.384 54.504 247.84 54.504 250.772C54.504 256.986 57.9045 260.152 64.8228 260.152H96.3654C103.518 260.152 107.153 256.986 107.153 250.772C107.153 247.84 106.684 243.384 105.629 237.521L91.3232 142.542Z"/>
<path d="M349.527 386.088C343.312 386.088 339.677 382.922 338.739 376.707L327.952 305.883C327.013 299.668 323.378 296.502 317.164 296.502H267.915C261.7 296.502 258.065 299.668 257.127 305.883L247.278 376.707C246.339 382.922 242.704 386.088 236.49 386.088H223.24C215.97 386.088 212.452 382.688 212.452 375.769C212.452 375.417 212.569 374.714 212.686 373.776C212.803 372.721 213.273 369.672 213.976 364.395L268.032 10.1568C268.97 3.94212 272.605 0.776138 278.82 0.776138H307.314C313.529 0.776138 317.164 3.94212 318.102 10.1568L371.689 364.395C372.275 369.672 372.744 372.721 372.862 373.776C372.979 374.714 373.096 375.417 373.096 375.769C373.096 382.688 369.461 386.088 362.308 386.088H349.527ZM303.327 142.542C299.692 120.966 296.057 110.061 292.539 110.061C288.553 110.061 285.035 120.966 281.752 142.542L268.032 237.521C267.094 243.384 266.508 247.84 266.508 250.772C266.508 256.986 269.908 260.152 276.827 260.152H308.369C315.522 260.152 319.157 256.986 319.157 250.772C319.157 247.84 318.688 243.384 317.633 237.521L303.327 142.542Z"/>
<path d="M435.595 386.088C428.442 386.088 424.807 382.453 424.807 375.183V358.532C424.807 355.249 425.745 353.138 427.504 352.083C429.263 351.028 431.373 350.324 433.601 349.621C435.829 349.034 437.94 348.213 439.699 347.158C441.458 346.103 442.396 343.992 442.396 340.709V46.1552C442.396 42.872 441.458 40.7613 439.699 39.706C437.94 38.6507 435.829 37.9471 433.601 37.2436C431.373 36.6573 429.38 35.8365 427.504 34.7811C425.628 33.8431 424.807 31.6152 424.807 28.3319V11.6812C424.807 4.41116 428.442 0.776138 435.595 0.776138H511.813C520.607 0.776138 529.402 2.53502 538.079 5.93552C546.756 9.33602 554.612 14.4954 561.413 21.4137C568.214 28.3319 573.843 36.8918 578.181 47.2106C582.402 57.5293 584.63 69.6069 584.63 83.4435V303.303C584.63 317.023 582.52 329.1 578.181 339.536C573.96 349.855 568.331 358.415 561.413 365.333C554.495 372.251 546.756 377.411 538.079 380.811C529.402 384.212 520.607 385.971 511.813 385.971H435.595V386.088ZM489.768 37.3608C482.498 37.3608 478.98 40.9959 478.98 48.1486V338.833C478.98 345.986 482.615 349.621 489.768 349.621H511.93C522.132 349.621 530.574 345.986 537.492 338.833C544.411 331.68 547.811 321.009 547.811 306.821V80.1602C547.811 65.9719 544.411 55.4187 537.492 48.1486C530.574 40.9959 522.132 37.3608 511.93 37.3608H489.768Z"/>
</mask>
<path d="M126.735 376.707L126.933 376.677L126.933 376.677L126.735 376.707ZM115.948 305.883L115.75 305.913L115.75 305.913L115.948 305.883ZM45.1233 305.883L44.9255 305.853L44.9252 305.856L45.1233 305.883ZM35.2736 376.707L35.4714 376.737L35.4717 376.735L35.2736 376.707ZM0.682307 373.776L0.880781 373.801L0.881084 373.798L0.682307 373.776ZM1.97214 364.395L1.77439 364.365L1.77389 364.369L1.97214 364.395ZM56.0284 10.1568L56.2261 10.187L56.2261 10.1867L56.0284 10.1568ZM106.098 10.1568L105.9 10.1867L105.9 10.1867L106.098 10.1568ZM159.685 364.395L159.884 364.373L159.883 364.365L159.685 364.395ZM160.858 373.776L160.659 373.798L160.659 373.801L160.858 373.776ZM91.3232 142.542L91.521 142.512L91.5205 142.509L91.3232 142.542ZM69.7476 142.542L69.5499 142.512L69.5497 142.513L69.7476 142.542ZM56.0284 237.521L56.2259 237.553L56.2263 237.55L56.0284 237.521ZM105.629 237.521L105.431 237.551L105.432 237.557L105.629 237.521ZM338.739 376.707L338.937 376.677L338.937 376.677L338.739 376.707ZM327.952 305.883L327.754 305.913L327.754 305.913L327.952 305.883ZM257.127 305.883L256.93 305.853L256.929 305.856L257.127 305.883ZM247.278 376.707L247.475 376.737L247.476 376.735L247.278 376.707ZM212.686 373.776L212.885 373.801L212.885 373.798L212.686 373.776ZM213.976 364.395L213.778 364.365L213.778 364.369L213.976 364.395ZM268.032 10.1568L268.23 10.187L268.23 10.1867L268.032 10.1568ZM318.102 10.1568L317.904 10.1867V10.1867L318.102 10.1568ZM371.689 364.395L371.888 364.373L371.887 364.365L371.689 364.395ZM372.862 373.776L372.663 373.798L372.663 373.801L372.862 373.776ZM303.327 142.542L303.525 142.512L303.524 142.509L303.327 142.542ZM281.752 142.542L281.554 142.512L281.554 142.513L281.752 142.542ZM268.032 237.521L268.23 237.553L268.23 237.55L268.032 237.521ZM317.633 237.521L317.435 237.551L317.436 237.557L317.633 237.521ZM435.595 386.088V386.288H435.795V386.088H435.595ZM433.601 349.621L433.55 349.427L433.541 349.43L433.601 349.621ZM433.601 37.2436L433.662 37.0526L433.652 37.0502L433.601 37.2436ZM427.504 34.7811L427.602 34.6066L427.593 34.6023L427.504 34.7811ZM578.181 47.2106L578.366 47.1348L578.366 47.133L578.181 47.2106ZM578.181 339.536L577.996 339.46L577.996 339.461L578.181 339.536ZM435.595 385.971V385.771H435.395V385.971H435.595ZM537.492 48.1486L537.637 48.0108L537.636 48.0096L537.492 48.1486ZM137.523 385.888C134.45 385.888 132.039 385.106 130.282 383.577C128.525 382.049 127.397 379.753 126.933 376.677L126.538 376.737C127.011 379.877 128.171 382.271 130.019 383.879C131.868 385.487 134.382 386.288 137.523 386.288V385.888ZM126.933 376.677L116.145 305.853L115.75 305.913L126.538 376.737L126.933 376.677ZM116.145 305.853C115.671 302.714 114.512 300.319 112.664 298.711C110.815 297.103 108.301 296.302 105.16 296.302V296.702C108.233 296.702 110.644 297.485 112.401 299.013C114.158 300.542 115.286 302.838 115.75 305.913L116.145 305.853ZM105.16 296.302H55.9111V296.702H105.16V296.302ZM55.9111 296.302C52.77 296.302 50.2561 297.103 48.4072 298.711C46.5587 300.319 45.3995 302.714 44.9256 305.853L45.3211 305.913C45.7853 302.838 46.9126 300.542 48.6697 299.013C50.4266 297.485 52.8375 296.702 55.9111 296.702V296.302ZM44.9252 305.856L35.0755 376.68L35.4717 376.735L45.3214 305.911L44.9252 305.856ZM35.0758 376.677C34.6117 379.753 33.4843 382.049 31.7272 383.577C29.9703 385.106 27.5594 385.888 24.4858 385.888V386.288C27.6269 386.288 30.1408 385.487 31.9897 383.879C33.8383 382.271 34.9975 379.877 35.4714 376.737L35.0758 376.677ZM24.4858 385.888H11.2356V386.288H24.4858V385.888ZM11.2356 385.888C7.62813 385.888 4.99048 385.044 3.25385 383.379C1.51886 381.715 0.647784 379.197 0.647784 375.769H0.247784C0.247784 379.26 1.13559 381.901 2.97699 383.667C4.81675 385.432 7.573 386.288 11.2356 386.288V385.888ZM0.647784 375.769C0.647784 375.609 0.675087 375.358 0.719394 375.018C0.762819 374.685 0.822177 374.269 0.880763 373.801L0.483851 373.751C0.425179 374.22 0.367275 374.625 0.322754 374.967C0.279114 375.301 0.247784 375.578 0.247784 375.769H0.647784ZM0.881084 373.798C0.998107 372.745 1.46578 369.706 2.17038 364.422L1.77389 364.369C1.07139 369.637 0.601025 372.696 0.48353 373.754L0.881084 373.798ZM2.16985 364.425L56.2261 10.187L55.8307 10.1267L1.77443 364.365L2.16985 364.425ZM56.2261 10.1867C56.6903 7.11149 57.8177 4.81544 59.5748 3.28686C61.3316 1.75857 63.7426 0.976138 66.8162 0.976138V0.576138C63.6751 0.576138 61.1611 1.3767 59.3123 2.98507C57.4637 4.59317 56.3045 6.98746 55.8306 10.127L56.2261 10.1867ZM66.8162 0.976138H95.31V0.576138H66.8162V0.976138ZM95.31 0.976138C98.3836 0.976138 100.795 1.75857 102.551 3.28686C104.309 4.81544 105.436 7.11149 105.9 10.1867L106.296 10.127C105.822 6.98746 104.662 4.59317 102.814 2.98507C100.965 1.3767 98.4511 0.576138 95.31 0.576138V0.976138ZM105.9 10.1867L159.487 364.425L159.883 364.365L106.296 10.1269L105.9 10.1867ZM159.486 364.417C159.78 367.057 160.044 369.14 160.249 370.695C160.455 372.253 160.6 373.273 160.659 373.798L161.056 373.754C160.997 373.223 160.85 372.192 160.645 370.642C160.44 369.09 160.177 367.01 159.884 364.373L159.486 364.417ZM160.659 373.801C160.718 374.269 160.777 374.685 160.821 375.018C160.865 375.358 160.892 375.609 160.892 375.769H161.292C161.292 375.578 161.261 375.301 161.217 374.967C161.173 374.625 161.115 374.22 161.056 373.751L160.659 373.801ZM160.892 375.769C160.892 379.195 159.993 381.713 158.243 383.378C156.491 385.044 153.852 385.888 150.304 385.888V386.288C153.909 386.288 156.665 385.431 158.518 383.668C160.374 381.903 161.292 379.262 161.292 375.769H160.892ZM150.304 385.888H137.523V386.288H150.304V385.888ZM91.5205 142.509C89.7025 131.718 87.8829 123.586 86.0751 118.148C85.1717 115.43 84.2675 113.373 83.3611 111.992C82.4623 110.623 81.5233 109.861 80.5354 109.861V110.261C81.3064 110.261 82.141 110.862 83.0267 112.212C83.9049 113.55 84.7962 115.568 85.6956 118.274C87.4935 123.682 89.309 131.79 91.126 142.575L91.5205 142.509ZM80.5354 109.861C79.4389 109.861 78.4193 110.611 77.4652 111.988C76.5074 113.371 75.5841 115.43 74.6878 118.148C72.8942 123.588 71.1919 131.721 69.5499 142.512L69.9454 142.572C71.5866 131.787 73.2849 123.68 75.0676 118.273C75.9595 115.569 76.8684 113.552 77.794 112.216C78.7234 110.874 79.6386 110.261 80.5354 110.261V109.861ZM69.5497 142.513L55.8304 237.493L56.2263 237.55L69.9456 142.57L69.5497 142.513ZM55.8309 237.49C54.8932 243.35 54.304 247.822 54.304 250.772H54.704C54.704 247.859 55.2874 243.418 56.2259 237.553L55.8309 237.49ZM54.304 250.772C54.304 253.915 55.1647 256.322 56.9341 257.94C58.7 259.555 61.337 260.352 64.8228 260.352V259.952C61.3903 259.952 58.8679 259.166 57.204 257.645C55.5436 256.126 54.704 253.843 54.704 250.772H54.304ZM64.8228 260.352H96.3654V259.952H64.8228V260.352ZM96.3654 260.352C99.9671 260.352 102.719 259.556 104.573 257.943C106.431 256.326 107.353 253.918 107.353 250.772H106.953C106.953 253.839 106.057 256.122 104.31 257.641C102.558 259.166 99.9164 259.952 96.3654 259.952V260.352ZM107.353 250.772C107.353 247.823 106.882 243.354 105.826 237.486L105.432 237.557C106.486 243.415 106.953 247.857 106.953 250.772H107.353ZM105.827 237.492L91.521 142.512L91.1255 142.572L105.431 237.551L105.827 237.492ZM349.527 385.888C346.453 385.888 344.043 385.106 342.286 383.577C340.529 382.049 339.401 379.753 338.937 376.677L338.542 376.737C339.015 379.877 340.175 382.271 342.023 383.879C343.872 385.487 346.386 386.288 349.527 386.288V385.888ZM338.937 376.677L328.149 305.853L327.754 305.913L338.542 376.737L338.937 376.677ZM328.149 305.853C327.675 302.714 326.516 300.319 324.668 298.711C322.819 297.103 320.305 296.302 317.164 296.302V296.702C320.237 296.702 322.648 297.485 324.405 299.013C326.162 300.542 327.29 302.838 327.754 305.913L328.149 305.853ZM317.164 296.302H267.915V296.702H317.164V296.302ZM267.915 296.302C264.774 296.302 262.26 297.103 260.411 298.711C258.563 300.319 257.403 302.714 256.93 305.853L257.325 305.913C257.789 302.838 258.917 300.542 260.674 299.013C262.431 297.485 264.841 296.702 267.915 296.702V296.302ZM256.929 305.856L247.079 376.68L247.476 376.735L257.325 305.911L256.929 305.856ZM247.08 376.677C246.616 379.753 245.488 382.049 243.731 383.577C241.974 385.106 239.563 385.888 236.49 385.888V386.288C239.631 386.288 242.145 385.487 243.994 383.879C245.842 382.271 247.001 379.877 247.475 376.737L247.08 376.677ZM236.49 385.888H223.24V386.288H236.49V385.888ZM223.24 385.888C219.632 385.888 216.994 385.044 215.258 383.379C213.523 381.715 212.652 379.197 212.652 375.769H212.252C212.252 379.26 213.14 381.901 214.981 383.667C216.821 385.432 219.577 386.288 223.24 386.288V385.888ZM212.652 375.769C212.652 375.609 212.679 375.358 212.723 375.018C212.767 374.685 212.826 374.269 212.885 373.801L212.488 373.751C212.429 374.22 212.371 374.625 212.327 374.967C212.283 375.301 212.252 375.578 212.252 375.769H212.652ZM212.885 373.798C213.002 372.745 213.47 369.706 214.174 364.422L213.778 364.369C213.075 369.637 212.605 372.696 212.487 373.754L212.885 373.798ZM214.174 364.425L268.23 10.187L267.835 10.1267L213.778 364.365L214.174 364.425ZM268.23 10.1867C268.694 7.11149 269.822 4.81544 271.579 3.28686C273.336 1.75857 275.747 0.976138 278.82 0.976138V0.576138C275.679 0.576138 273.165 1.3767 271.316 2.98507C269.468 4.59317 268.308 6.98746 267.835 10.127L268.23 10.1867ZM278.82 0.976138H307.314V0.576138H278.82V0.976138ZM307.314 0.976138C310.388 0.976138 312.799 1.75857 314.555 3.28686C316.312 4.81544 317.44 7.11149 317.904 10.1867L318.3 10.127C317.826 6.98746 316.666 4.59317 314.818 2.98507C312.969 1.3767 310.455 0.576138 307.314 0.576138V0.976138ZM317.904 10.1867L371.491 364.425L371.887 364.365L318.3 10.1269L317.904 10.1867ZM371.49 364.417C371.784 367.057 372.048 369.14 372.253 370.695C372.459 372.253 372.604 373.273 372.663 373.798L373.06 373.754C373.001 373.223 372.854 372.192 372.649 370.642C372.444 369.09 372.181 367.01 371.888 364.373L371.49 364.417ZM372.663 373.801C372.722 374.269 372.781 374.685 372.824 375.018C372.869 375.358 372.896 375.609 372.896 375.769H373.296C373.296 375.578 373.265 375.301 373.221 374.967C373.177 374.625 373.119 374.22 373.06 373.751L372.663 373.801ZM372.896 375.769C372.896 379.195 371.997 381.713 370.247 383.378C368.495 385.044 365.856 385.888 362.308 385.888V386.288C365.913 386.288 368.668 385.431 370.522 383.668C372.378 381.903 373.296 379.262 373.296 375.769H372.896ZM362.308 385.888H349.527V386.288H362.308V385.888ZM303.524 142.509C301.706 131.718 299.887 123.586 298.079 118.148C297.176 115.43 296.271 113.373 295.365 111.992C294.466 110.623 293.527 109.861 292.539 109.861V110.261C293.31 110.261 294.145 110.862 295.031 112.212C295.909 113.55 296.8 115.568 297.7 118.274C299.497 123.682 301.313 131.79 303.13 142.575L303.524 142.509ZM292.539 109.861C291.443 109.861 290.423 110.611 289.469 111.988C288.511 113.371 287.588 115.43 286.692 118.148C284.898 123.588 283.196 131.721 281.554 142.512L281.949 142.572C283.591 131.787 285.289 123.68 287.072 118.273C287.963 115.569 288.872 113.552 289.798 112.216C290.727 110.874 291.643 110.261 292.539 110.261V109.861ZM281.554 142.513L267.834 237.493L268.23 237.55L281.95 142.57L281.554 142.513ZM267.835 237.49C266.897 243.35 266.308 247.822 266.308 250.772H266.708C266.708 247.859 267.291 243.418 268.23 237.553L267.835 237.49ZM266.308 250.772C266.308 253.915 267.169 256.322 268.938 257.94C270.704 259.555 273.341 260.352 276.827 260.352V259.952C273.394 259.952 270.872 259.166 269.208 257.645C267.547 256.126 266.708 253.843 266.708 250.772H266.308ZM276.827 260.352H308.369V259.952H276.827V260.352ZM308.369 260.352C311.971 260.352 314.723 259.556 316.577 257.943C318.435 256.326 319.357 253.918 319.357 250.772H318.957C318.957 253.839 318.061 256.122 316.314 257.641C314.562 259.166 311.92 259.952 308.369 259.952V260.352ZM319.357 250.772C319.357 247.823 318.886 243.354 317.83 237.486L317.436 237.557C318.49 243.415 318.957 247.857 318.957 250.772H319.357ZM317.831 237.492L303.525 142.512L303.129 142.572L317.435 237.551L317.831 237.492ZM435.595 385.888C432.05 385.888 429.413 384.988 427.66 383.221C425.908 381.454 425.007 378.787 425.007 375.183H424.607C424.607 378.849 425.523 381.634 427.377 383.503C429.23 385.371 431.987 386.288 435.595 386.288V385.888ZM425.007 375.183V358.532H424.607V375.183H425.007ZM425.007 358.532C425.007 355.281 425.935 353.258 427.607 352.255L427.401 351.911C425.555 353.019 424.607 355.217 424.607 358.532H425.007ZM427.607 352.255C429.342 351.213 431.431 350.516 433.661 349.811L433.541 349.43C431.316 350.133 429.183 350.842 427.401 351.911L427.607 352.255ZM433.652 349.814C435.893 349.224 438.023 348.397 439.802 347.33L439.596 346.987C437.857 348.03 435.765 348.844 433.55 349.427L433.652 349.814ZM439.802 347.33C441.648 346.222 442.596 344.024 442.596 340.709H442.196C442.196 343.96 441.268 345.984 439.596 346.987L439.802 347.33ZM442.596 340.709V46.1552H442.196V340.709H442.596ZM442.596 46.1552C442.596 42.84 441.648 40.6421 439.802 39.5345L439.596 39.8775C441.268 40.8806 442.196 42.904 442.196 46.1552H442.596ZM439.802 39.5345C438.02 38.4653 435.887 37.7556 433.661 37.0529L433.541 37.4343C435.771 38.1386 437.86 38.8361 439.596 39.8775L439.802 39.5345ZM433.652 37.0502C431.441 36.4682 429.463 35.6539 427.602 34.6068L427.406 34.9555C429.297 36.019 431.306 36.8463 433.55 37.437L433.652 37.0502ZM427.593 34.6023C425.825 33.7184 425.007 31.5991 425.007 28.3319H424.607C424.607 31.6312 425.43 33.9678 427.414 34.96L427.593 34.6023ZM425.007 28.3319V11.6812H424.607V28.3319H425.007ZM425.007 11.6812C425.007 8.07701 425.908 5.41017 427.66 3.64325C429.413 1.87662 432.05 0.976138 435.595 0.976138V0.576138C431.987 0.576138 429.23 1.49317 427.377 3.36156C425.523 5.22965 424.607 8.01535 424.607 11.6812H425.007ZM435.595 0.976138H511.813V0.576138H435.595V0.976138ZM511.813 0.976138C520.58 0.976138 529.35 2.72952 538.006 6.12173L538.152 5.74931C529.453 2.34051 520.634 0.576138 511.813 0.576138V0.976138ZM538.006 6.12173C546.656 9.51188 554.489 14.6555 561.271 21.5539L561.556 21.2735C554.735 14.3353 546.855 9.16015 538.152 5.74931L538.006 6.12173ZM561.271 21.5539C568.052 28.4522 573.667 36.9902 577.997 47.2881L578.366 47.133C574.018 36.7934 568.376 28.2116 561.556 21.2735L561.271 21.5539ZM577.996 47.2863C582.206 57.577 584.43 69.6283 584.43 83.4435H584.83C584.83 69.5856 582.599 57.4816 578.366 47.1348L577.996 47.2863ZM584.43 83.4435V303.303H584.83V83.4435H584.43ZM584.43 303.303C584.43 317.003 582.323 329.053 577.996 339.46L578.366 339.613C582.717 329.148 584.83 317.043 584.83 303.303H584.43ZM577.996 339.461C573.784 349.757 568.17 358.294 561.272 365.192L561.555 365.475C568.493 358.536 574.136 349.953 578.366 339.612L577.996 339.461ZM561.272 365.192C554.372 372.092 546.656 377.235 538.006 380.625L538.152 380.998C546.856 377.586 554.618 372.411 561.555 365.475L561.272 365.192ZM538.006 380.625C529.35 384.017 520.58 385.771 511.813 385.771V386.171C520.634 386.171 529.453 384.406 538.152 380.998L538.006 380.625ZM511.813 385.771H435.595V386.171H511.813V385.771ZM435.395 385.971V386.088H435.795V385.971H435.395ZM489.768 37.1608C486.102 37.1608 483.345 38.0774 481.506 39.9316C479.667 41.7854 478.78 44.5422 478.78 48.1486H479.18C479.18 44.6022 480.052 41.9651 481.79 40.2133C483.527 38.4617 486.164 37.5608 489.768 37.5608V37.1608ZM478.78 48.1486V338.833H479.18V48.1486H478.78ZM478.78 338.833C478.78 342.441 479.697 345.197 481.551 347.05C483.404 348.904 486.16 349.821 489.768 349.821V349.421C486.223 349.421 483.586 348.52 481.833 346.768C480.081 345.015 479.18 342.377 479.18 338.833H478.78ZM489.768 349.821H511.93V349.421H489.768V349.821ZM511.93 349.821C522.186 349.821 530.68 346.163 537.636 338.972L537.349 338.694C530.468 345.808 522.077 349.421 511.93 349.421V349.821ZM537.636 338.972C544.604 331.768 548.011 321.038 548.011 306.821H547.611C547.611 320.981 544.218 331.592 537.349 338.694L537.636 338.972ZM548.011 306.821V80.1602H547.611V306.821H548.011ZM548.011 80.1602C548.011 65.9419 544.603 55.331 537.637 48.0108L537.348 48.2865C544.218 55.5063 547.611 66.0019 547.611 80.1602H548.011ZM537.636 48.0096C530.68 40.8179 522.186 37.1608 511.93 37.1608V37.5608C522.077 37.5608 530.468 41.1738 537.349 48.2877L537.636 48.0096ZM511.93 37.1608H489.768V37.5608H511.93V37.1608Z" fill="white" mask="url(#path-1-inside-1_145_1900)"/>
<path d="M710.74 389.74L624.187 389.74C617.182 389.74 613.62 393.382 613.62 400.549V415.352C613.62 422.518 617.063 426.16 624.187 426.16H710.74" stroke="white" stroke-width="0.2"/>
</g>
<defs>
<clipPath id="clip0_145_1900">
<rect width="808" height="427" fill="white"/>
</clipPath>
</defs>
</svg>
