<svg width="38" height="38" viewBox="0 0 38 38" fill="none" xmlns="http://www.w3.org/2000/svg">
<rect width="38" height="38" rx="2" fill="#F6A700"/>
<path d="M6.93544 23.1285C7.02502 23.7112 7.08966 24.2593 7.19817 24.7986C7.28728 25.2419 7.41933 25.6773 7.54862 26.1113C7.69545 26.604 7.5283 27.0024 7.09936 27.1363C6.68195 27.2661 6.31626 27.0431 6.15604 26.561C3.65115 19.0237 8.24537 10.979 16.0121 9.30248C23.1883 7.75337 30.3027 12.3074 31.8647 19.4615C32.3652 21.7535 32.2706 24.0298 31.5891 26.278C31.4473 26.7453 31.0862 26.9669 30.6647 26.8542C30.269 26.7485 30.0714 26.3546 30.1646 25.9266C30.3396 25.1246 30.4971 24.3189 30.6568 23.5136C30.679 23.4023 30.6748 23.286 30.685 23.1447C30.589 23.1387 30.5086 23.1295 30.4278 23.129C30.0353 23.1267 29.6424 23.1355 29.2504 23.1244C28.8316 23.1124 28.537 22.8072 28.5343 22.4045C28.5319 21.9968 28.8399 21.6861 29.2684 21.6782C29.7144 21.6699 30.1609 21.6732 30.6074 21.6704C30.6217 21.6704 30.6356 21.6611 30.6933 21.6408C30.5165 18.9448 29.5348 16.5798 27.7512 14.5025C27.3993 14.8585 27.0678 15.1997 26.7294 15.5335C26.5142 15.7459 26.251 15.8133 25.9643 15.7118C25.6877 15.6139 25.5242 15.4066 25.4822 15.1157C25.4453 14.8608 25.5441 14.6498 25.7232 14.472C26.0511 14.147 26.3784 13.8219 26.7289 13.4738C24.6654 11.6781 22.2995 10.678 19.5522 10.4854C19.5522 11.0058 19.5573 11.4883 19.5504 11.9713C19.5448 12.3467 19.3001 12.6297 18.9534 12.6833C18.5004 12.7535 18.1236 12.4575 18.1047 11.9944C18.0881 11.5871 18.0992 11.1785 18.0982 10.7708C18.0982 10.6877 18.0982 10.605 18.0982 10.4854C15.3606 10.6784 12.997 11.6744 10.9239 13.4742C11.2762 13.8233 11.6169 14.153 11.9484 14.4919C12.2292 14.7791 12.2523 15.1858 12.0186 15.4772C11.7397 15.8249 11.2545 15.853 10.9216 15.5284C10.5859 15.2011 10.2613 14.8617 9.90529 14.5006C8.12209 16.5706 7.14137 18.936 6.9576 21.6759C7.1954 21.6759 7.40087 21.6755 7.60634 21.6759C7.89122 21.6768 8.17657 21.6672 8.46054 21.6833C8.84423 21.705 9.11758 22.0195 9.11481 22.411C9.11204 22.7915 8.84331 23.1013 8.467 23.1188C8.0676 23.1378 7.66682 23.1267 7.2665 23.1285C7.176 23.129 7.0855 23.1285 6.93544 23.1285Z" fill="white"/>
<path d="M19.0032 20.4958C19.1621 20.523 19.3311 20.5249 19.4765 20.5844C19.664 20.6615 19.7693 20.5918 19.8944 20.4667C20.8857 19.4777 21.884 18.4951 22.8767 17.5074C23.0609 17.3241 23.2664 17.2064 23.5319 17.2336C23.8256 17.2637 24.0366 17.4202 24.1437 17.6935C24.2545 17.977 24.1996 18.2439 23.989 18.4618C23.6792 18.7827 23.3583 19.093 23.0406 19.407C22.3185 20.1213 21.5968 20.8365 20.8714 21.5471C20.774 21.6422 20.7417 21.7194 20.7823 21.8653C20.9938 22.623 20.8132 23.2902 20.2264 23.8124C19.6395 24.3346 18.9506 24.4477 18.228 24.137C17.4962 23.8221 17.1157 23.2352 17.0783 22.442C17.0293 21.3943 17.9459 20.4796 19.0032 20.4958Z" fill="white"/>
</svg>
