<svg width="38" height="38" viewBox="0 0 38 38" fill="none" xmlns="http://www.w3.org/2000/svg">
<rect width="38" height="38" rx="2" fill="#F6A700"/>
<path d="M18.5083 29.9979C12.7581 30.0109 8.0172 25.2979 8.00017 19.5528C7.98314 13.7265 12.6598 9.01398 18.472 8.99979C24.2704 8.9856 28.9897 13.6612 29 19.4307C29.0107 25.2757 24.3357 29.9848 18.5083 29.9979ZM27.4876 19.5085C27.4944 14.5309 23.4768 10.5048 18.4998 10.5002C13.5846 10.4962 9.53409 14.5139 9.52331 19.404C9.51252 24.4407 13.4944 28.4691 18.4941 28.4793C23.4507 28.4889 27.4808 24.469 27.4876 19.5085Z" fill="white"/>
<path d="M17.7703 22.8074C17.7703 21.9104 17.7754 21.0504 17.7612 20.1909C17.7601 20.1165 17.6477 20.0211 17.5648 19.974C17.0505 19.6822 16.4828 19.462 16.0212 19.1043C15.2361 18.4952 15.0221 17.6005 15.3502 16.6581C15.7147 15.6112 16.4447 14.938 17.508 14.6257C17.5716 14.607 17.6358 14.5911 17.6988 14.5724C17.7158 14.5672 17.7306 14.5548 17.7709 14.532C17.7709 14.4145 17.7646 14.2834 17.772 14.1528C17.797 13.6964 18.1245 13.3711 18.5469 13.379C18.9721 13.387 19.3031 13.7214 19.2804 14.1823C19.2656 14.4861 19.3451 14.6161 19.6568 14.6995C20.321 14.8766 20.8648 15.2689 21.3008 15.8043C21.6045 16.1778 21.587 16.6388 21.2588 16.9175C20.9239 17.2019 20.4731 17.1508 20.1558 16.7864C19.9242 16.5201 19.6693 16.2931 19.3025 16.1841C19.3025 17.1105 19.3025 18.0143 19.3025 18.8965C19.7096 19.0884 20.1149 19.2496 20.4907 19.4625C21.1089 19.8122 21.6034 20.2925 21.7811 21.0078C22.0173 21.9598 21.6579 22.754 21.0459 23.4529C20.5901 23.9735 19.9963 24.276 19.2895 24.4231C19.2895 24.565 19.2934 24.7041 19.2889 24.8432C19.2736 25.2752 18.9727 25.5846 18.5617 25.596C18.1421 25.6073 17.7618 25.3257 17.7936 24.9017C17.8305 24.4049 17.5869 24.309 17.1935 24.2119C16.4618 24.0308 15.8072 23.6692 15.2117 23.2054C14.8279 22.9062 14.7462 22.4617 15.0096 22.1125C15.2747 21.7611 15.7311 21.7061 16.1155 21.9967C16.6031 22.364 17.1305 22.6433 17.7703 22.8074ZM19.2974 22.8267C19.8759 22.6502 20.3885 21.9865 20.3443 21.5006C20.3102 21.1287 19.7607 20.6553 19.2974 20.6042C19.2974 21.3382 19.2974 22.0711 19.2974 22.8267ZM17.7527 18.4123C17.7527 17.6368 17.7527 16.905 17.7527 16.1114C17.5727 16.2227 17.4144 16.2896 17.2951 16.4003C16.6922 16.959 16.3227 17.7481 17.47 18.2885C17.554 18.3277 17.6397 18.3629 17.7527 18.4123Z" fill="white"/>
</svg>
