<svg width="38" height="38" viewBox="0 0 38 38" fill="none" xmlns="http://www.w3.org/2000/svg">
<rect width="38" height="38" rx="2" fill="#F6A700"/>
<path d="M14.8335 23.0137C15.3361 22.5069 15.8121 22.0271 16.293 21.542C14.8213 19.6149 14.2683 17.4498 14.7824 15.0558C15.193 13.1438 16.2097 11.5961 17.8036 10.4603C21.1139 8.10133 25.5249 8.65153 28.1842 11.7322C30.707 14.655 30.5852 19.1616 27.9171 21.9826C25.169 24.8883 20.5581 25.2981 17.3157 22.5765C16.8373 23.055 16.3599 23.532 15.8566 24.035C16.0081 24.1799 16.1817 24.3402 16.349 24.5068C16.7039 24.8603 16.7057 25.2568 16.3539 25.6089C15.0967 26.8679 13.8392 28.1268 12.5792 29.383C11.9716 29.9885 11.0868 30.161 10.301 29.8366C9.51775 29.5132 9.00046 28.7579 8.99976 27.9105C8.99941 27.3519 9.18281 26.8539 9.58005 26.4545C10.8589 25.1679 12.1431 23.8862 13.4279 22.6052C13.7296 22.3046 14.1342 22.3049 14.4419 22.601C14.5756 22.7302 14.6984 22.8709 14.8335 23.0137ZM22.2804 23.007C25.7591 23.0098 28.5877 20.1945 28.5919 16.7253C28.5965 13.2285 25.7804 10.4068 22.2846 10.405C18.8291 10.4033 15.9952 13.2232 15.9903 16.6689C15.9854 20.1742 18.7938 23.0042 22.2804 23.007ZM13.9333 24.0889C13.8843 24.1358 13.8374 24.1788 13.7926 24.224C13.1161 24.9002 12.4395 25.5767 11.763 26.2533C11.371 26.6453 10.9793 27.0373 10.5873 27.4289C10.3966 27.6197 10.308 27.8451 10.3742 28.1125C10.5103 28.6634 11.1585 28.83 11.5733 28.417C12.6649 27.3306 13.7524 26.24 14.8409 25.1504C14.8678 25.1235 14.8885 25.0899 14.9084 25.064C14.5829 24.7385 14.2655 24.421 13.9333 24.0889Z" fill="white"/>
</svg>
