<svg width="20" height="16" viewBox="0 0 20 16" fill="none" xmlns="http://www.w3.org/2000/svg">
<path d="M13.1281 7.42427L9.00313 4.67427C8.89873 4.60793 8.77887 4.56988 8.65533 4.56385C8.53178 4.55783 8.4088 4.58403 8.29844 4.63989C8.18853 4.69922 8.09685 4.78736 8.03326 4.89486C7.96967 5.00236 7.93656 5.12515 7.9375 5.25005V10.7501C7.93656 10.8749 7.96967 10.9977 8.03326 11.1052C8.09685 11.2127 8.18853 11.3009 8.29844 11.3602C8.39981 11.411 8.51162 11.4375 8.625 11.4376C8.75897 11.4361 8.88989 11.3974 9.00313 11.3258L13.1281 8.57583C13.2239 8.51336 13.3025 8.42799 13.357 8.32745C13.4114 8.22691 13.4399 8.11438 13.4399 8.00005C13.4399 7.88572 13.4114 7.77319 13.357 7.67265C13.3025 7.57212 13.2239 7.48675 13.1281 7.42427ZM9.3125 9.46958V6.53052L11.5125 8.00005L9.3125 9.46958ZM19.1352 2.99849C19.0562 2.68166 18.9015 2.3887 18.6845 2.14474C18.4675 1.90077 18.1945 1.71306 17.8891 1.59771C14.95 0.463332 10.2578 0.471926 10 0.471926C9.74219 0.471926 5.05 0.463332 2.11094 1.59771C1.80546 1.71306 1.53252 1.90077 1.31549 2.14474C1.09846 2.3887 0.943831 2.68166 0.864844 2.99849C0.641406 3.84927 0.375 5.41333 0.375 8.00005C0.375 10.5868 0.641406 12.1508 0.864844 13.0016C0.943831 13.3184 1.09846 13.6114 1.31549 13.8554C1.53252 14.0993 1.80546 14.287 2.11094 14.4024C4.92969 15.4938 9.34688 15.5282 9.93984 15.5282H10.0602C10.6531 15.5282 15.0703 15.4938 17.8891 14.4024C18.1945 14.287 18.4675 14.0993 18.6845 13.8554C18.9015 13.6114 19.0562 13.3184 19.1352 13.0016C19.3586 12.1508 19.625 10.5868 19.625 8.00005C19.625 5.41333 19.3586 3.84927 19.1352 2.99849ZM17.8031 12.6579C17.7777 12.7618 17.7278 12.8582 17.6576 12.939C17.5873 13.0197 17.4987 13.0824 17.3992 13.1219C14.675 14.1704 10.0516 14.1532 10 14.1532H9.99141C9.94844 14.1532 5.325 14.1704 2.60078 13.1219C2.5013 13.0824 2.41271 13.0197 2.34244 12.939C2.27217 12.8582 2.22226 12.7618 2.19688 12.6579C1.99063 11.8758 1.75 10.4407 1.75 8.00005C1.75 5.55943 1.99063 4.12427 2.19688 3.34224C2.22226 3.23826 2.27217 3.14187 2.34244 3.06113C2.41271 2.9804 2.5013 2.91766 2.60078 2.87818C5.22188 1.87271 9.62187 1.84693 9.98281 1.84693H10C10.0516 1.84693 14.675 1.82974 17.3992 2.87818C17.4987 2.91766 17.5873 2.9804 17.6576 3.06113C17.7278 3.14187 17.7777 3.23826 17.8031 3.34224C18.0094 4.12427 18.25 5.55943 18.25 8.00005C18.25 10.4407 18.0094 11.8758 17.8031 12.6579Z" fill="#434343"/>
</svg>
